RobotoSerifDisplay-RegularWdth150.ufo
<glyph name="asterisk" format="2">
  <advance width="240.54"/>
  <unicode hex="002A"/>
  <outline>
    <contour>
      <point x="43.7525" y="468.25" type="curve"/>
      <point x="19.8" y="523.25" type="line"/>
      <point x="47.4175" y="545.45"/>
      <point x="73.7025" y="544.6"/>
      <point x="116.7975" y="575.05" type="curve"/>
      <point x="123.02" y="559.6" type="line"/>
      <point x="82.6025" y="522.45"/>
      <point x="71.4975" y="491.4"/>
    </contour>
    <contour>
      <point x="116.7975" y="559.6" type="line"/>
      <point x="73.83" y="590.05"/>
      <point x="48.2675" y="589.2"/>
      <point x="19.8" y="611.4" type="curve"/>
      <point x="43.879999999999995" y="666.4" type="line"/>
      <point x="71.4975" y="643.25"/>
      <point x="82.6025" y="612.2"/>
      <point x="123.87" y="575.05" type="curve"/>
    </contour>
    <contour>
      <point x="96.19" y="423.7" type="line"/>
      <point x="96.19" y="469.05"/>
      <point x="110.64750000000001" y="499.25"/>
      <point x="113.325" y="566.85" type="curve"/>
      <point x="126.365" y="566.85" type="line"/>
      <point x="129.0425" y="499.25"/>
      <point x="143.5" y="469.05"/>
      <point x="143.5" y="423.7" type="curve"/>
    </contour>
    <contour>
      <point x="114.175" y="566.85" type="line"/>
      <point x="111.4975" y="634.45"/>
      <point x="96.3175" y="664.65"/>
      <point x="96.3175" y="710.0" type="curve"/>
      <point x="144.35" y="710.0" type="line"/>
      <point x="144.35" y="664.65"/>
      <point x="129.17" y="634.45"/>
      <point x="127.215" y="566.85" type="curve"/>
    </contour>
    <contour>
      <point x="195.9375" y="467.3" type="line"/>
      <point x="169.0425" y="490.45"/>
      <point x="157.9375" y="521.5"/>
      <point x="116.67" y="558.65" type="curve"/>
      <point x="123.02" y="574.1" type="line"/>
      <point x="166.71" y="543.65"/>
      <point x="192.2725" y="544.5"/>
      <point x="220.74" y="522.3" type="curve"/>
    </contour>
    <contour>
      <point x="123.02" y="558.65" type="curve"/>
      <point x="116.7975" y="574.1" type="line"/>
      <point x="157.9375" y="611.25"/>
      <point x="169.0425" y="642.3"/>
      <point x="196.7875" y="665.45" type="curve"/>
      <point x="220.74" y="610.45" type="line"/>
      <point x="193.1225" y="588.25"/>
      <point x="166.8375" y="589.1"/>
    </contour>
  </outline>
</glyph>
<glyph name="four" format="2">
  <advance width="393.4"/>
  <unicode hex="0034"/>
  <outline>
    <contour>
      <point x="16.7275" y="111.85" type="line"/>
      <point x="388.1225" y="111.85" type="line"/>
      <point x="388.1225" y="174.85" type="line"/>
      <point x="39.6025" y="174.85" type="line"/>
      <point x="37.957499999999996" y="145.4" type="line"/>
      <point x="261.025" y="600.75" type="line"/>
      <point x="265.7025" y="609.0" type="line"/>
      <point x="236.2475" y="609.0" type="line"/>
      <point x="16.7275" y="165.6" type="line"/>
    </contour>
    <contour>
      <point x="309.145" y="-77.0" type="line"/>
      <point x="309.145" y="609.0" type="line"/>
      <point x="249.6525" y="609.0" type="line"/>
      <point x="230.0875" y="573.1" type="line"/>
      <point x="230.0875" y="-77.0" type="line"/>
    </contour>
  </outline>
</glyph>
<glyph name="less" format="2">
  <advance width="393.4"/>
  <unicode hex="003C"/>
  <outline>
    <contour>
      <point x="328.2675" y="538.85" type="line"/>
      <point x="65.9825" y="365.6" type="line"/>
      <point x="65.9825" y="340.75" type="line"/>
      <point x="80.1825" y="336.25" type="line"/>
      <point x="328.2675" y="499.25" type="line"/>
    </contour>
    <contour>
      <point x="328.2675" y="196.0" type="line"/>
      <point x="80.3325" y="358.95" type="line"/>
      <point x="65.9825" y="349.25" type="line"/>
      <point x="65.9825" y="325.35" type="line"/>
      <point x="328.2675" y="152.1" type="line"/>
    </contour>
  </outline>
</glyph>
<glyph name="L" format="2">
  <advance width="410.9775"/>
  <unicode hex="004C"/>
  <outline>
    <contour>
      <point x="221.815" y="710.0" type="line"/>
      <point x="221.815" y="679.4" type="line"/>
      <point x="214.6975" y="679.4" type="line" smooth="yes"/>
      <point x="191.565" y="679.4"/>
      <point x="163.89499999999998" y="676.25"/>
      <point x="163.89499999999998" y="668.35" type="curve" smooth="yes"/>
      <point x="163.89499999999998" y="35.85" type="line"/>
      <point x="258.2125" y="35.85" type="line" smooth="yes"/>
      <point x="317.1" y="35.85"/>
      <point x="340.2325" y="49.55"/>
      <point x="345.405" y="94.05" type="curve" smooth="yes"/>
      <point x="359.2275" y="223.3" type="line"/>
      <point x="384.6625" y="223.3" type="line"/>
      <point x="384.6625" y="0.0" type="line"/>
      <point x="23.4875" y="0.0" type="line"/>
      <point x="23.4875" y="30.599999999999998" type="line"/>
      <point x="28.26" y="30.599999999999998" type="line" smooth="yes"/>
      <point x="56.575" y="30.599999999999998"/>
      <point x="80.5675" y="37.55"/>
      <point x="80.5675" y="66.35" type="curve" smooth="yes"/>
      <point x="80.5675" y="643.65" type="line" smooth="yes"/>
      <point x="80.5675" y="672.45"/>
      <point x="56.4475" y="679.4"/>
      <point x="28.26" y="679.4" type="curve" smooth="yes"/>
      <point x="23.4875" y="679.4" type="line"/>
      <point x="23.4875" y="710.0" type="line"/>
    </contour>
  </outline>
</glyph>
<glyph name="S" format="2">
  <advance width="428"/>
  <unicode hex="0053"/>
  <outline>
    <contour>
      <point x="222.3275" y="26.85" type="curve" smooth="yes"/>
      <point x="138.2525" y="26.85"/>
      <point x="88.35309606327858" y="86.58413037528959"/>
      <point x="62.7775" y="216.9" type="curve"/>
      <point x="35.065" y="216.9" type="line"/>
      <point x="35.065" y="0.0" type="line"/>
      <point x="65.1325" y="0.0" type="line"/>
      <point x="72.4" y="120.55" type="line"/>
      <point x="78" y="134"/>
      <point x="68" y="149"/>
      <point x="52.91" y="157.3" type="curve"/>
      <point x="75.0125" y="43.650000000000006"/>
      <point x="140.63" y="-10.0"/>
      <point x="227.285" y="-10.0" type="curve" smooth="yes"/>
      <point x="320.85249999999996" y="-10.0"/>
      <point x="397.39" y="67.4"/>
      <point x="397.39" y="197.5" type="curve" smooth="yes"/>
      <point x="397.39" y="336.95"/>
      <point x="318.5525" y="378.6"/>
      <point x="240.8625" y="409.65" type="curve" smooth="yes"/>
      <point x="168.31269839948862" y="438.6110080741129"/>
      <point x="108.2525" y="463.25"/>
      <point x="108.2525" y="561.6" type="curve" smooth="yes"/>
      <point x="108.2525" y="636.25"/>
      <point x="142.14175675675676" y="683.15"/>
      <point x="205.365" y="683.15" type="curve" smooth="yes"/>
      <point x="269.3925" y="683.15"/>
      <point x="317.1704258205674" y="623.522572294456"/>
      <point x="331.8275" y="526.9" type="curve"/>
      <point x="358.045" y="526.9" type="line"/>
      <point x="358.045" y="710.0" type="line"/>
      <point x="329.805" y="710.0" type="line"/>
      <point x="322.41" y="611.15" type="line"/>
      <point x="328" y="604"/>
      <point x="343" y="578"/>
      <point x="346.705" y="577.55" type="curve"/>
      <point x="324.3875" y="658.8"/>
      <point x="280.9475" y="720.0"/>
      <point x="197.8075" y="720.0" type="curve" smooth="yes"/>
      <point x="112.2275" y="720.0"/>
      <point x="45.9025" y="646.65"/>
      <point x="45.9025" y="535.75" type="curve" smooth="yes"/>
      <point x="45.9025" y="401.0"/>
      <point x="117.085" y="358.2"/>
      <point x="191.0125" y="326.2" type="curve" smooth="yes"/>
      <point x="266.79554027558993" y="293.7406899229363"/>
      <point x="333.0175" y="271.65"/>
      <point x="333.0175" y="168.9" type="curve" smooth="yes"/>
      <point x="333.0175" y="64.4"/>
      <point x="286.62406626506026" y="26.85"/>
    </contour>
  </outline>
</glyph>
<glyph name="V" format="2">
  <advance width="481"/>
  <unicode hex="0056"/>
  <outline>
    <contour>
      <point x="275.015" y="53.0" type="line"/>
      <point x="127.91499999999999" y="668.45" type="line"/>
      <point x="127.91499999999999" y="675.45"/>
      <point x="154.435" y="679.4"/>
      <point x="175.9775" y="679.4" type="curve" smooth="yes"/>
      <point x="187.005" y="679.4" type="line"/>
      <point x="187.005" y="710.0" type="line"/>
      <point x="4.645" y="710.0" type="line"/>
      <point x="4.645" y="679.4" type="line"/>
      <point x="8.0725" y="679.4" type="line"/>
      <point x="27.455" y="679.4"/>
      <point x="42.3425" y="675.35"/>
      <point x="49.62" y="645.7" type="curve" smooth="yes"/>
      <point x="209.535" y="0.0" type="line"/>
      <point x="269.6175" y="0.0" type="line"/>
      <point x="421.705" y="621.2" type="line" smooth="yes"/>
      <point x="432.1325" y="662.9"/>
      <point x="450.2025" y="679.4"/>
      <point x="471.03499999999997" y="679.4" type="curve"/>
      <point x="475.885" y="679.4" type="line"/>
      <point x="475.885" y="710.0" type="line"/>
      <point x="339.835" y="710.0" type="line"/>
      <point x="339.835" y="679.4" type="line"/>
      <point x="358.2725" y="679.4" type="line" smooth="yes"/>
      <point x="391.97" y="679.4"/>
      <point x="400.12" y="668.7"/>
      <point x="400.12" y="656.95" type="curve"/>
      <point x="259.665" y="67.05000000000001" type="line"/>
    </contour>
  </outline>
</glyph>
<glyph name="bar" format="2">
  <advance width="163.83"/>
  <unicode hex="007C"/>
  <outline>
    <contour>
      <point x="61.315" y="751.0" type="line"/>
      <point x="61.315" y="-130.1" type="line"/>
      <point x="100.9425" y="-130.1" type="line"/>
      <point x="100.9425" y="751.0" type="line"/>
    </contour>
  </outline>
</glyph>
<glyph name="currency" format="2">
  <advance width="393.4"/>
  <unicode hex="00A4"/>
  <outline>
    <contour>
      <point x="292.92" y="373.0" type="curve" smooth="yes"/>
      <point x="292.92" y="280.5515"/>
      <point x="255.3175" y="222.1"/>
      <point x="196.7" y="222.1" type="curve" smooth="yes"/>
      <point x="138.7825" y="222.1"/>
      <point x="100.48" y="281.5015"/>
      <point x="100.48" y="373.0" type="curve" smooth="yes"/>
      <point x="100.48" y="465.4016776315825"/>
      <point x="138.7825" y="524.85"/>
      <point x="196.7" y="524.85" type="curve" smooth="yes"/>
      <point x="255.3175" y="524.85"/>
      <point x="292.92" y="465.4016776315825"/>
    </contour>
    <contour>
      <point x="54.62" y="373.0" type="curve" smooth="yes"/>
      <point x="54.62" y="258.2"/>
      <point x="117.365" y="176.6"/>
      <point x="196.7" y="176.6" type="curve" smooth="yes"/>
      <point x="276.185" y="176.6"/>
      <point x="338.78" y="258.2"/>
      <point x="338.78" y="373.0" type="curve" smooth="yes"/>
      <point x="338.78" y="488.75"/>
      <point x="276.185" y="570.35"/>
      <point x="196.7" y="570.35" type="curve" smooth="yes"/>
      <point x="117.365" y="570.35"/>
      <point x="54.62" y="488.75"/>
    </contour>
    <contour>
      <point x="25.552500000000002" y="583.85" type="line"/>
      <point x="96.07" y="484.3" type="line"/>
      <point x="119.8725" y="526.8" type="line"/>
      <point x="54.17" y="618.15" type="line"/>
    </contour>
    <contour>
      <point x="367.8475" y="583.85" type="line"/>
      <point x="339.23" y="618.15" type="line"/>
      <point x="273.5275" y="526.8" type="line"/>
      <point x="297.33" y="484.3" type="line"/>
    </contour>
    <contour>
      <point x="25.552500000000002" y="163.1" type="line"/>
      <point x="54.17" y="128.8" type="line"/>
      <point x="123.5275" y="225.85" type="line"/>
      <point x="96.07" y="262.65" type="line"/>
    </contour>
    <contour>
      <point x="367.8475" y="163.1" type="line"/>
      <point x="297.33" y="262.65" type="line"/>
      <point x="269.8725" y="225.85" type="line"/>
      <point x="339.23" y="128.8" type="line"/>
    </contour>
  </outline>
</glyph>
<glyph name="Oslash" format="2">
  <advance width="553.3475"/>
  <unicode hex="00D8"/>
  <anchor x="277.85" y="731.0" name="top"/>
  <outline>
    <contour>
      <point x="506.585" y="725.0" type="line"/>
      <point x="2.3525" y="-15.0" type="line"/>
      <point x="44.01" y="-15.0" type="line"/>
      <point x="548.2425000000001" y="725.0" type="line"/>
    </contour>
    <contour>
      <point x="276.3125" y="-10.0" type="curve" smooth="yes"/>
      <point x="415.61" y="-10.0"/>
      <point x="525.56" y="138.7"/>
      <point x="525.56" y="355.0" type="curve" smooth="yes"/>
      <point x="525.56" y="572.25"/>
      <point x="413.5025" y="720.0"/>
      <point x="276.3125" y="720.0" type="curve" smooth="yes"/>
      <point x="136.8875" y="720.0"/>
      <point x="27.7875" y="572.25"/>
      <point x="27.7875" y="355.0" type="curve" smooth="yes"/>
      <point x="27.7875" y="138.7"/>
      <point x="139.4675" y="-10.0"/>
    </contour>
    <contour>
      <point x="275.69" y="29.2" type="curve" smooth="yes"/>
      <point x="181.517931034475" y="29.2"/>
      <point x="114.2525" y="134.8"/>
      <point x="114.2525" y="355.0" type="curve" smooth="yes"/>
      <point x="114.2525" y="555.7"/>
      <point x="182.51285714285" y="680.8"/>
      <point x="276.8075" y="680.8" type="curve" smooth="yes"/>
      <point x="372.807068965525" y="680.8"/>
      <point x="439.095" y="575.2"/>
      <point x="439.095" y="355.0" type="curve" smooth="yes"/>
      <point x="439.095" y="154.3"/>
      <point x="371.68464285715" y="29.2"/>
    </contour>
  </outline>
</glyph>
<glyph name="germandbls" format="2">
  <advance width="434.865"/>
  <unicode hex="00DF"/>
  <outline>
    <contour>
      <point x="16.575" y="517.8" type="line"/>
      <point x="16.575" y="483.15" type="line"/>
      <point x="112.475" y="483.15" type="line"/>
      <point x="112.475" y="517.8" type="line"/>
    </contour>
    <contour>
      <point x="18.1875" y="0.0" type="line"/>
      <point x="161.7875" y="0.0" type="line"/>
      <point x="161.7875" y="570.1" type="line" smooth="yes"/>
      <point x="161.7875" y="690.6"/>
      <point x="190.76749999999998" y="718.55"/>
      <point x="230.465" y="718.55" type="curve" smooth="yes"/>
      <point x="270.24" y="718.55"/>
      <point x="293.76" y="675.65"/>
      <point x="293.76" y="598.2" type="curve" smooth="yes"/>
      <point x="293.76" y="499.02873086120945"/>
      <point x="257.5116781931722" y="447.89982482152067"/>
      <point x="199.2075" y="437.1" type="curve"/>
      <point x="199.2075" y="408.4" type="line"/>
      <point x="200.68" y="408.35" type="line" smooth="yes"/>
      <point x="274.49599786899165" y="407.89993347540053"/>
      <point x="328.3625" y="311.98179515418"/>
      <point x="328.3625" y="186.35" type="curve" smooth="yes"/>
      <point x="328.3625" y="76.5"/>
      <point x="300.7025" y="22.2"/>
      <point x="257.49" y="22.2" type="curve" smooth="yes"/>
      <point x="229.1875" y="22.2"/>
      <point x="204.33499999999998" y="45.2"/>
      <point x="199.2075" y="48.1" type="curve"/>
      <point x="199.2075" y="9.85" type="line"/>
      <point x="209.925" y="0.85"/>
      <point x="239.1975" y="-11.0"/>
      <point x="270.0475" y="-11.0" type="curve" smooth="yes"/>
      <point x="350.545" y="-11.0"/>
      <point x="410.8275" y="55.3"/>
      <point x="410.8275" y="185.6" type="curve" smooth="yes"/>
      <point x="410.8275" y="304.4"/>
      <point x="349.44767607195" y="403.249993711715"/>
      <point x="230.875" y="433.6" type="curve"/>
      <point x="224.2875" y="429.8"/>
      <point x="213.32" y="424.1"/>
      <point x="208.56" y="418.4" type="curve"/>
      <point x="294.3" y="428.6"/>
      <point x="369.645" y="504.2"/>
      <point x="369.645" y="602.8" type="curve" smooth="yes"/>
      <point x="369.645" y="688.95"/>
      <point x="317.96999999999997" y="751.75"/>
      <point x="229.9925" y="751.75" type="curve" smooth="yes"/>
      <point x="151.3975" y="751.75"/>
      <point x="82.75" y="707.45"/>
      <point x="82.75" y="568.8" type="curve" smooth="yes"/>
      <point x="82.75" y="68.0" type="line" smooth="yes"/>
      <point x="82.75" y="39.45"/>
      <point x="61.035" y="32.3"/>
      <point x="25.9375" y="32.3" type="curve" smooth="yes"/>
      <point x="18.1875" y="32.3" type="line"/>
    </contour>
  </outline>
</glyph>
<glyph name="horizontalbar" format="2">
  <advance width="663.65"/>
  <unicode hex="2015"/>
  <outline>
    <contour>
      <point x="0.0" y="340.1" type="line"/>
      <point x="0.0" y="289.9" type="line"/>
      <point x="663.65" y="289.9" type="line"/>
      <point x="663.65" y="340.1" type="line"/>
    </contour>
  </outline>
</glyph>
<glyph name="kip" format="2">
  <advance width="393.4"/>
  <unicode hex="20AD"/>
  <outline>
    <contour>
      <point x="9.6325" y="391.65" type="line"/>
      <point x="9.6325" y="356.45" type="line"/>
      <point x="350.6175" y="356.45" type="line"/>
      <point x="350.6175" y="391.65" type="line"/>
    </contour>
    <contour>
      <point x="9.6325" y="0.0" type="line"/>
      <point x="174.675" y="0.0" type="line" smooth="yes"/>
      <point x="174.675" y="32.6" type="line" smooth="yes"/>
      <point x="168.87" y="32.6" type="line" smooth="yes"/>
      <point x="149.7775" y="32.6"/>
      <point x="128.075" y="35.6"/>
      <point x="128.075" y="42.35" type="curve" smooth="yes"/>
      <point x="128.075" y="667.4" type="line" smooth="yes"/>
      <point x="128.075" y="674.4"/>
      <point x="150.60625" y="677.4"/>
      <point x="170.3325" y="677.4" type="curve" smooth="yes"/>
      <point x="176.955" y="677.4" type="line" smooth="yes"/>
      <point x="176.955" y="710.0" type="line" smooth="yes"/>
      <point x="9.6325" y="710.0" type="line"/>
      <point x="9.6325" y="677.4" type="line"/>
      <point x="16.5875" y="677.4" type="line" smooth="yes"/>
      <point x="36.60181818181825" y="677.4"/>
      <point x="51.5125" y="670.4"/>
      <point x="51.5125" y="641.9" type="curve" smooth="yes"/>
      <point x="51.5125" y="68.1" type="line" smooth="yes"/>
      <point x="51.5125" y="39.6"/>
      <point x="36.60181818181825" y="32.6"/>
      <point x="16.5875" y="32.6" type="curve" smooth="yes"/>
      <point x="9.6325" y="32.6" type="line"/>
    </contour>
    <contour>
      <point x="384.2625" y="32.6" type="line"/>
      <point x="380.4575" y="32.6" type="line" smooth="yes"/>
      <point x="363.57" y="32.6"/>
      <point x="350.66" y="37.65"/>
      <point x="340.2" y="65.2" type="curve" smooth="yes"/>
      <point x="222.54749999999999" y="380.0" type="line"/>
      <point x="196.2725" y="362.4" type="line"/>
      <point x="316.7775" y="646.05" type="line" smooth="yes"/>
      <point x="327.6775" y="669.5"/>
      <point x="341.565" y="677.4"/>
      <point x="358.1425" y="677.4" type="curve" smooth="yes"/>
      <point x="363.71999999999997" y="677.4" type="line"/>
      <point x="363.71999999999997" y="710.0" type="line"/>
      <point x="237.9575" y="710.0" type="line"/>
      <point x="237.9575" y="677.4" type="line"/>
      <point x="249.2125" y="677.4" type="line" smooth="yes"/>
      <point x="267.4225" y="677.4"/>
      <point x="289.4375" y="672.6"/>
      <point x="290.265" y="665.6" type="curve"/>
      <point x="163.215" y="367.75" type="line"/>
      <point x="143.285" y="376.7" type="line"/>
      <point x="260.7875" y="42.35" type="line"/>
      <point x="260.7875" y="35.6"/>
      <point x="239.77234375" y="32.6"/>
      <point x="221.52" y="32.6" type="curve" smooth="yes"/>
      <point x="216.4375" y="32.6" type="line"/>
      <point x="216.4375" y="0.0" type="line"/>
      <point x="384.2625" y="0.0" type="line"/>
    </contour>
  </outline>
</glyph>
<glyph name="integral" format="2">
  <advance width="390.02750000000003"/>
  <unicode hex="222B"/>
  <outline>
    <contour>
      <point x="225.17000000000002" y="-65.2" type="curve" smooth="yes"/>
      <point x="238.7025" y="566.2" type="line" smooth="yes"/>
      <point x="241.7720189001623" y="670.1297520080402"/>
      <point x="257.085" y="701.9"/>
      <point x="290.5175" y="701.9" type="curve" smooth="yes"/>
      <point x="312.8225" y="701.9"/>
      <point x="330.67723266007255" y="685.8006162578475"/>
      <point x="341.6325" y="653.05" type="curve"/>
      <point x="354.45460985611965" y="669.9758381814596"/>
      <point x="339.9545766422535" y="700.4999836839813"/>
      <point x="319.5825" y="699.5" type="curve"/>
      <point x="319.5825" y="615.35" type="line"/>
      <point x="383.4725" y="615.35" type="line"/>
      <point x="383.4725" y="689.9" type="line"/>
      <point x="370.4225" y="712.5"/>
      <point x="340.5475" y="737.0"/>
      <point x="291.065" y="737.0" type="curve" smooth="yes"/>
      <point x="214.8025" y="737.0"/>
      <point x="163.9875" y="680.45"/>
      <point x="161.5375" y="566.2" type="curve" smooth="yes"/>
      <point x="147.2825" y="-65.2" type="line" smooth="yes"/>
      <point x="144.93954194109352" y="-168.18414928062586"/>
      <point x="132.4275" y="-200.9"/>
      <point x="92.6625" y="-200.9" type="curve" smooth="yes"/>
      <point x="70.3575" y="-200.9"/>
      <point x="56.10487242099762" y="-186.70917170577093"/>
      <point x="45.074999999999996" y="-156.8" type="curve"/>
      <point x="32.3575" y="-172.8"/>
      <point x="46.03" y="-199.5"/>
      <point x="66.4025" y="-198.5" type="curve"/>
      <point x="66.4025" y="-116.25" type="line"/>
      <point x="2.3850000000000007" y="-116.25" type="line"/>
      <point x="2.3850000000000007" y="-187.0" type="line"/>
      <point x="15.435" y="-212.45"/>
      <point x="47.9875" y="-236.0"/>
      <point x="94.92" y="-236.0" type="curve" smooth="yes"/>
      <point x="171.1825" y="-236.0"/>
      <point x="221.9975" y="-179.45"/>
    </contour>
  </outline>
</glyph>
<glyph name="uni25B8" format="2">
  <advance width="402.15"/>
  <unicode hex="25B8"/>
  <outline>
    <contour>
      <point x="90.9" y="10.0" type="line"/>
      <point x="353.4" y="277.0" type="line"/>
      <point x="90.9" y="545.0" type="line"/>
    </contour>
  </outline>
</glyph>
<glyph name="Euro.proportional" format="2">
  <advance width="482.8925"/>
  <outline>
    <contour>
      <point x="13.8475" y="440.55" type="line"/>
      <point x="13.8475" y="405.65" type="line"/>
      <point x="306.1125" y="405.65" type="line"/>
      <point x="306.1125" y="440.55" type="line"/>
    </contour>
    <contour>
      <point x="13.8475" y="285.2" type="line"/>
      <point x="13.8475" y="250.3" type="line"/>
      <point x="273.21999999999997" y="250.3" type="line"/>
      <point x="273.21999999999997" y="285.2" type="line"/>
    </contour>
    <contour>
      <point x="148.7375" y="355.0" type="curve"/>
      <point x="148.7375" y="595.8485849056625"/>
      <point x="210.04250000000002" y="686.65"/>
      <point x="296.955" y="686.65" type="curve" smooth="yes"/>
      <point x="350.0575" y="686.65"/>
      <point x="383.4775" y="655.75"/>
      <point x="401.1725" y="618.4" type="curve"/>
      <point x="411.805" y="635.75"/>
      <point x="391.895" y="665.9"/>
      <point x="366.1275" y="675.1" type="curve"/>
      <point x="366.1275" y="526.35" type="line"/>
      <point x="439.7125" y="526.35" type="line"/>
      <point x="439.7125" y="662.7" type="line"/>
      <point x="419.0075" y="685.5"/>
      <point x="372.1275" y="720.0"/>
      <point x="295.665" y="720.0" type="curve" smooth="yes"/>
      <point x="169.5775" y="720.0"/>
      <point x="65.745" y="603.05"/>
      <point x="65.745" y="355.0" type="curve"/>
      <point x="65.745" y="113.7"/>
      <point x="159.4625" y="-10.0"/>
      <point x="270.9725" y="-10.0" type="curve" smooth="yes"/>
      <point x="379.695" y="-10.0"/>
      <point x="433.295" y="81.5"/>
      <point x="456.5775" y="222.64999999999998" type="curve"/>
      <point x="430.1225" y="237.55" type="line"/>
      <point x="411.54499999999996" y="110.6"/>
      <point x="367.3975" y="25.3"/>
      <point x="284.3025" y="25.3" type="curve" smooth="yes"/>
      <point x="208.905" y="25.3"/>
      <point x="148.7375" y="127.900566037735"/>
    </contour>
  </outline>
</glyph>
<glyph name="breve_grave.uc" format="2">
  <advance width="358.5725"/>
  <anchor x="175.2" y="744.0" name="_top"/>
  <outline>
    <contour>
      <point x="169.365" y="1022.6" type="curve" smooth="yes"/>
      <point x="209.3625" y="930.65" type="line"/>
      <point x="209.3625" y="916.9" type="line"/>
      <point x="192.625" y="916.9" type="line"/>
      <point x="133.7275" y="960.65" type="line" smooth="yes"/>
      <point x="105.6575" y="978.8"/>
      <point x="89.0075" y="1001.15"/>
      <point x="89.0075" y="1028.05" type="curve" smooth="yes"/>
      <point x="89.0075" y="1049.0"/>
      <point x="101.3475" y="1068.35"/>
      <point x="121.655" y="1068.35" type="curve" smooth="yes"/>
      <point x="141.435" y="1068.35"/>
      <point x="154.7975" y="1052.75"/>
    </contour>
    <component base="breve.uc" xOffset="-54.2725"/>
  </outline>
</glyph>
<glyph name="f.alt" format="2">
  <advance width="271.4775"/>
  <outline>
    <contour>
      <point x="16.575" y="518.3" type="line"/>
      <point x="16.575" y="485.5" type="line"/>
      <point x="265.155" y="485.5" type="line"/>
      <point x="265.155" y="518.3" type="line"/>
    </contour>
    <contour>
      <point x="231.6175" y="0.0" type="line"/>
      <point x="231.6175" y="30.45" type="line"/>
      <point x="226.9725" y="30.45" type="line" smooth="yes"/>
      <point x="190.9223275862069" y="30.45"/>
      <point x="161.7875" y="33.4"/>
      <point x="161.7875" y="53.75" type="curve" smooth="yes"/>
      <point x="161.7875" y="579.1" type="line" smooth="yes"/>
      <point x="161.7875" y="679.3029430379747"/>
      <point x="181.1160849056604" y="723.3"/>
      <point x="229.0275" y="723.3" type="curve" smooth="yes"/>
      <point x="256.99525" y="723.3"/>
      <point x="276.84428124471987" y="708.6975026072467"/>
      <point x="291.0825" y="677.0" type="curve"/>
      <point x="298.265" y="691.25"/>
      <point x="281.7425" y="730.35"/>
      <point x="264.3175" y="729.4" type="curve"/>
      <point x="264.3175" y="632.1" type="line"/>
      <point x="324.3125" y="632.1" type="line"/>
      <point x="324.3125" y="726.2" type="line"/>
      <point x="311.6464468082512" y="738.2504811613826"/>
      <point x="276.2709913793103" y="758.1"/>
      <point x="226.7475" y="758.1" type="curve" smooth="yes"/>
      <point x="140.295" y="758.1"/>
      <point x="82.7725" y="693.65"/>
      <point x="82.7725" y="574.75" type="curve" smooth="yes"/>
      <point x="82.7725" y="66.0" type="line" smooth="yes"/>
      <point x="82.7725" y="37.45"/>
      <point x="61.0575" y="30.45"/>
      <point x="25.96" y="30.45" type="curve" smooth="yes"/>
      <point x="18.21" y="30.45" type="line"/>
      <point x="18.21" y="0.0" type="line"/>
    </contour>
  </outline>
</glyph>
<glyph name="slash.uc" format="2">
  <advance width="290.2375"/>
  <outline>
    <contour>
      <point x="256.22" y="749.5" type="line"/>
      <point x="20.4675" y="-38.75" type="line"/>
      <point x="61.2125" y="-38.75" type="line"/>
      <point x="296.965" y="749.5" type="line"/>
    </contour>
  </outline>
</glyph>
<glyph name="three.den" format="2">
  <advance width="232.35999999999999"/>
  <outline>
    <contour>
      <point x="107.9275" y="22.1" type="curve" smooth="yes"/>
      <point x="141.3475" y="22.1"/>
      <point x="157.0975" y="57.2"/>
      <point x="157.0975" y="97.8" type="curve" smooth="yes"/>
      <point x="157.0975" y="141.35"/>
      <point x="141.22" y="168.75"/>
      <point x="96.855" y="168.75" type="curve" smooth="yes"/>
      <point x="73.895" y="168.75" type="line"/>
      <point x="73.895" y="194.55" type="line"/>
      <point x="92.4275" y="194.55" type="line" smooth="yes"/>
      <point x="128.76" y="194.55"/>
      <point x="148.465" y="211.35"/>
      <point x="148.465" y="260.15" type="curve" smooth="yes"/>
      <point x="148.465" y="305.1878515625"/>
      <point x="131.7275" y="321.95"/>
      <point x="109.2175" y="321.95" type="curve" smooth="yes"/>
      <point x="85.2575" y="321.95"/>
      <point x="68.5525" y="308.65"/>
      <point x="60.575" y="288.65" type="curve"/>
      <point x="61.275" y="308.85"/>
      <point x="62.7475" y="318.35"/>
      <point x="73.82" y="321.3" type="curve"/>
      <point x="73.82" y="251.85" type="line"/>
      <point x="26.465" y="251.85" type="line"/>
      <point x="26.465" y="305.2" type="line"/>
      <point x="41.3875" y="324.3"/>
      <point x="70.95" y="348.85"/>
      <point x="114.3025" y="348.85" type="curve" smooth="yes"/>
      <point x="167.1825" y="348.85"/>
      <point x="207.17249999999999" y="318.80089285714286"/>
      <point x="207.17249999999999" y="265.25" type="curve" smooth="yes"/>
      <point x="207.17249999999999" y="208.35"/>
      <point x="158.82" y="179.5"/>
      <point x="97.2" y="179.6" type="curve"/>
      <point x="103.6275" y="186.7" type="line"/>
      <point x="186.37" y="186.8"/>
      <point x="217.2775" y="149.2"/>
      <point x="217.2775" y="95.55" type="curve" smooth="yes"/>
      <point x="217.2775" y="33.0"/>
      <point x="173.515" y="-6.05"/>
      <point x="114.0125" y="-6.05" type="curve" smooth="yes"/>
      <point x="56.1875" y="-6.05"/>
      <point x="22.66" y="34.35"/>
      <point x="7.91" y="86.5" type="curve"/>
      <point x="30.197499999999998" y="104.55" type="line"/>
      <point x="40.225" y="57.4"/>
      <point x="69.5625" y="22.1"/>
    </contour>
  </outline>
</glyph>
<glyph name="uni20B4.proportional" format="2">
  <advance width="435.97"/>
  <outline>
    <contour>
      <point x="22.490000000000002" y="455.8" type="line"/>
      <point x="22.490000000000002" y="421.4" type="line"/>
      <point x="414.2025" y="421.4" type="line"/>
      <point x="414.2025" y="455.8" type="line"/>
    </contour>
    <contour>
      <point x="22.490000000000002" y="305.6" type="line"/>
      <point x="22.490000000000002" y="271.2" type="line"/>
      <point x="414.2025" y="271.2" type="line"/>
      <point x="414.2025" y="305.6" type="line"/>
    </contour>
    <contour>
      <point x="221.0375" y="686.5" type="curve" smooth="yes"/>
      <point x="286.46" y="686.5"/>
      <point x="309.27" y="637.95"/>
      <point x="309.27" y="579.2" type="curve" smooth="yes"/>
      <point x="309.27" y="518.4"/>
      <point x="287.3175" y="474.05"/>
      <point x="247.6825" y="438.9" type="curve"/>
      <point x="338.135" y="425.45" type="line"/>
      <point x="363.0875" y="456.35"/>
      <point x="380.2425" y="503.9"/>
      <point x="380.2425" y="562.9" type="curve" smooth="yes"/>
      <point x="380.2425" y="658.45"/>
      <point x="327.515" y="720.0"/>
      <point x="227.9725" y="720.0" type="curve" smooth="yes"/>
      <point x="154.6475" y="720.0"/>
      <point x="100.725" y="681.85"/>
      <point x="77.8925" y="656.3" type="curve"/>
      <point x="77.8925" y="569.5" type="line"/>
      <point x="146.7025" y="569.5" type="line"/>
      <point x="146.7025" y="668.45" type="line"/>
      <point x="127.2575" y="667.7"/>
      <point x="110.33749999999999" y="639.4"/>
      <point x="116.605" y="616.05" type="curve"/>
      <point x="137.265" y="660.2"/>
      <point x="173.70749999999998" y="686.5"/>
    </contour>
    <contour>
      <point x="236.64749999999998" y="23.5" type="curve" smooth="yes"/>
      <point x="176.89" y="23.5"/>
      <point x="137.98749999999998" y="62.8"/>
      <point x="137.98749999999998" y="145.7" type="curve" smooth="yes"/>
      <point x="137.98749999999998" y="210.15"/>
      <point x="157.24" y="264.45"/>
      <point x="198.4675" y="295.5" type="curve"/>
      <point x="96.63" y="291.2" type="line"/>
      <point x="75.7225" y="268.4"/>
      <point x="63.0375" y="221.55"/>
      <point x="63.0375" y="173.6" type="curve" smooth="yes"/>
      <point x="63.0375" y="53.3"/>
      <point x="127.1925" y="-10.0"/>
      <point x="229.0575" y="-10.0" type="curve" smooth="yes"/>
      <point x="306.0575" y="-10.0"/>
      <point x="366.7525" y="36.45"/>
      <point x="392.82" y="62.6" type="curve"/>
      <point x="392.82" y="163.75" type="line"/>
      <point x="320.3425" y="163.75" type="line"/>
      <point x="320.3425" y="33.95" type="line"/>
      <point x="340.005" y="34.7"/>
      <point x="358.3975" y="86.05"/>
      <point x="353.6025" y="94.65" type="curve"/>
      <point x="323.6875" y="49.400000000000006"/>
      <point x="287.6125" y="23.5"/>
    </contour>
  </outline>
</glyph>
<glyph name="zero.slashlin" format="2">
  <advance width="393.4"/>
  <outline>
    <contour>
      <point x="297.9525" y="519.25" type="line"/>
      <point x="82.55" y="214.35" type="line"/>
      <point x="98.14750000000001" y="188.75" type="line"/>
      <point x="311.7225" y="490.8" type="line"/>
    </contour>
    <contour>
      <point x="196.7" y="-11.0" type="curve" smooth="yes"/>
      <point x="298.6625" y="-11.0"/>
      <point x="370.2025" y="126.0"/>
      <point x="370.2025" y="354.0" type="curve" smooth="yes"/>
      <point x="370.2025" y="583.05"/>
      <point x="298.6625" y="720.0"/>
      <point x="196.7" y="720.0" type="curve" smooth="yes"/>
      <point x="94.7375" y="720.0"/>
      <point x="23.197499999999998" y="583.05"/>
      <point x="23.197499999999998" y="354.0" type="curve" smooth="yes"/>
      <point x="23.197499999999998" y="126.0"/>
      <point x="94.7375" y="-11.0"/>
    </contour>
    <contour>
      <point x="196.7" y="22.25" type="curve" smooth="yes"/>
      <point x="133.90115384615385" y="22.25"/>
      <point x="103.41499999999999" y="138.3"/>
      <point x="103.41499999999999" y="354.0" type="curve" smooth="yes"/>
      <point x="103.41499999999999" y="569.9"/>
      <point x="133.90115384615385" y="686.75"/>
      <point x="196.7" y="686.75" type="curve" smooth="yes"/>
      <point x="259.6546153846154" y="686.75"/>
      <point x="289.985" y="569.9"/>
      <point x="289.985" y="354.0" type="curve" smooth="yes"/>
      <point x="289.985" y="138.3"/>
      <point x="259.49884615384616" y="22.25"/>
    </contour>
  </outline>
</glyph>
